<svg width="50" height="45" viewBox="0 0 50 45" fill="none" xmlns="http://www.w3.org/2000/svg">
<rect width="50" height="37" rx="5" fill="#3F888F"/>
<path d="M38.5 43H11.5" stroke="#3F888F" stroke-width="3" stroke-linecap="round"/>
<path d="M16.1914 14.1797H13.5645C13.7012 13.1185 14.082 12.2656 14.707 11.6211C15.5794 10.7227 16.6764 10.2734 17.998 10.2734C19.1764 10.2734 20.1628 10.6478 20.957 11.3965C21.7578 12.1452 22.1582 13.0339 22.1582 14.0625C22.1582 14.7005 21.9824 15.2832 21.6309 15.8105C21.2858 16.3379 20.7812 16.7643 20.1172 17.0898C20.9896 17.3503 21.6699 17.806 22.1582 18.457C22.653 19.1016 22.9004 19.8633 22.9004 20.7422C22.9004 22.0312 22.4251 23.125 21.4746 24.0234C20.5241 24.9154 19.3132 25.3613 17.8418 25.3613C16.4486 25.3613 15.3125 24.9414 14.4336 24.1016C13.5547 23.2552 13.0729 22.1061 12.9883 20.6543H15.6934C15.8105 21.3965 16.0677 21.9499 16.4648 22.3145C16.8685 22.6725 17.3763 22.8516 17.9883 22.8516C18.6263 22.8516 19.1536 22.6465 19.5703 22.2363C19.9935 21.8262 20.2051 21.3249 20.2051 20.7324C20.2051 20.0814 19.9219 19.5312 19.3555 19.082C18.7891 18.6328 17.972 18.4017 16.9043 18.3887V16.0449C17.5618 15.9928 18.0501 15.8919 18.3691 15.7422C18.6947 15.5859 18.9453 15.3743 19.1211 15.1074C19.3034 14.8405 19.3945 14.5573 19.3945 14.2578C19.3945 13.8672 19.2578 13.5449 18.9844 13.291C18.7109 13.0306 18.3529 12.9004 17.9102 12.9004C17.5195 12.9004 17.1647 13.0208 16.8457 13.2617C16.5267 13.4961 16.3086 13.8021 16.1914 14.1797ZM26.2539 10.6348H29.4961C31.5859 10.6348 33.1387 10.8952 34.1543 11.416C35.1699 11.9303 36.0065 12.7702 36.6641 13.9355C37.3216 15.1009 37.6504 16.4616 37.6504 18.0176C37.6504 19.1243 37.4648 20.1432 37.0938 21.0742C36.7292 21.9987 36.2214 22.7669 35.5703 23.3789C34.9258 23.9909 34.2259 24.4141 33.4707 24.6484C32.7155 24.8828 31.4069 25 29.5449 25H26.2539V10.6348ZM28.9785 13.2715V22.3242H30.248C31.498 22.3242 32.403 22.181 32.9629 21.8945C33.5293 21.6081 33.9915 21.1263 34.3496 20.4492C34.7077 19.7721 34.8867 18.9388 34.8867 17.9492C34.8867 16.4258 34.4603 15.2441 33.6074 14.4043C32.8392 13.6491 31.6055 13.2715 29.9062 13.2715H28.9785Z" fill="white"/>
</svg>
