<svg width="52" height="52" viewBox="0 0 52 52" fill="none" xmlns="http://www.w3.org/2000/svg">
<path d="M11.5 6L12.0177 5.4823C12.6658 4.83419 13.4388 4.32447 14.2898 3.98407V3.98407C15.0893 3.66429 15.9424 3.5 16.8034 3.5H18.1098C18.6994 3.5 19.2852 3.59505 19.8445 3.78149L20.2579 3.9193C21.3734 4.29112 22.5908 4.2046 23.6425 3.67877V3.67877C23.8803 3.55983 24.107 3.41973 24.3198 3.26015L25.0633 2.70249C25.6713 2.2465 26.4108 2 27.1708 2V2C27.7161 2 28.2539 1.87304 28.7416 1.62918L30 1M28 7H29.9037C30.9582 7 32.003 6.79879 32.9821 6.40715V6.40715C33.6578 6.13689 34.2949 5.77884 34.877 5.34223L35.2804 5.03971C35.758 4.68146 36.2808 4.38768 36.8352 4.16592V4.16592C37.9264 3.72943 38.8859 3.01761 39.6201 2.09986L40.5 1" stroke="#3F888F" stroke-width="2" stroke-linecap="round"/>
<path d="M12 27H14.5M14.5 27H30.5V18.5L40.5 10L51 18.5V51H1V27H7.5V10H14.5V27ZM6.5 33H9.5" stroke="#3F888F" stroke-width="2" stroke-linecap="round"/>
<path d="M13 33H16.5" stroke="#3F888F" stroke-width="2" stroke-linecap="round"/>
<path d="M19.5 33H23.5" stroke="#3F888F" stroke-width="2" stroke-linecap="round"/>
<path d="M26.5 33H30" stroke="#3F888F" stroke-width="2" stroke-linecap="round"/>
<path d="M36 24.5V27.5" stroke="#3F888F" stroke-width="2" stroke-linecap="round"/>
<path d="M36 32V35" stroke="#3F888F" stroke-width="2" stroke-linecap="round"/>
<path d="M36 40V43" stroke="#3F888F" stroke-width="2" stroke-linecap="round"/>
<path d="M40.5 24.5V27.5" stroke="#3F888F" stroke-width="2" stroke-linecap="round"/>
<path d="M40.5 32V35" stroke="#3F888F" stroke-width="2" stroke-linecap="round"/>
<path d="M40.5 40V43" stroke="#3F888F" stroke-width="2" stroke-linecap="round"/>
<path d="M45 24.5V27.5" stroke="#3F888F" stroke-width="2" stroke-linecap="round"/>
<path d="M45 32V35" stroke="#3F888F" stroke-width="2" stroke-linecap="round"/>
<path d="M45 40V43" stroke="#3F888F" stroke-width="2" stroke-linecap="round"/>
</svg>
