<svg width="53" height="54" viewBox="0 0 53 54" fill="none" xmlns="http://www.w3.org/2000/svg">
<path d="M31.5964 2.67873H11.1234C9.41062 2.67873 7.73239 3.1609 6.28077 4.07006V4.07006C3.61739 5.73815 2 8.65955 2 11.8022V43.8558C2 45.4775 2.48416 47.0623 3.39045 48.4072V48.4072C4.90416 50.6534 7.43554 52 10.1442 52H31.5964H35.6323H38.9581C40.8851 52 42.7711 51.4432 44.3892 50.3966L46.0858 49.2992C48.9345 47.4565 50.6547 44.2952 50.6547 40.9026V23.7195M12.3526 44.1541L16.8892 42.7236C18.2997 42.2788 19.5723 41.4793 20.5851 40.4017L49.5336 9.60158C50.901 8.14668 50.8454 5.86296 49.4087 4.47635V4.47635C47.9822 3.09951 45.7174 3.11339 44.3079 4.5076L14.8632 33.6324C13.4941 34.9866 12.5622 36.72 12.1878 38.6089L11.2793 43.1926C11.2252 43.4655 11.3102 43.7473 11.5059 43.9449V43.9449C11.7267 44.1677 12.0535 44.2484 12.3526 44.1541Z" stroke="#40888D" stroke-width="4"/>
</svg>
