<svg width="52" height="54" viewBox="0 0 52 54" fill="none" xmlns="http://www.w3.org/2000/svg">
<path d="M2 22V22C2.32189 20.4002 2.84843 18.8486 3.56661 17.3833L4.44235 15.5965C6.17936 12.0526 8.79105 9.00984 12.0308 6.7557V6.7557C15.1543 4.58242 18.764 3.21008 22.5424 2.7594L23.2413 2.67603C26.9708 2.23119 30.7527 2.64137 34.3001 3.87548V3.87548C37.1468 4.86582 39.7885 6.36801 42.0952 8.30803L44.9091 10.6747L50 15.253M50 15.253H40.303M50 15.253V5.37349" stroke="#3F888F" stroke-width="4" stroke-linecap="round"/>
<path d="M50 32V32C49.6781 33.5998 49.1516 35.1514 48.4334 36.6167L47.5577 38.4035C45.8206 41.9474 43.209 44.9902 39.9692 47.2443V47.2443C36.8457 49.4176 33.236 50.7899 29.4576 51.2406L28.7587 51.324C25.0292 51.7688 21.2473 51.3586 17.6999 50.1245V50.1245C14.8532 49.1342 12.2115 47.632 9.90483 45.692L7.09091 43.3253L2 38.747M2 38.747H11.697M2 38.747V48.6265" stroke="#3F888F" stroke-width="4" stroke-linecap="round"/>
</svg>
