<svg width="54" height="50" viewBox="0 0 54 50" fill="none" xmlns="http://www.w3.org/2000/svg">
<path d="M39.6423 17.5588L3.77383 13.4764C2.76329 13.3614 2 12.5063 2 11.4892V3.11754C2 2.52143 2.51823 2.05771 3.11068 2.12369L37.7724 5.98366L44.9941 6.78485C45.5987 6.85192 46.1968 6.96789 46.7826 7.13162L48.2109 7.53083C48.9913 7.74898 49.7087 8.14965 50.3038 8.69978V8.69978C50.9879 9.33231 51.4861 10.1399 51.7443 11.0352L52 11.9216M39.6423 17.5588H44.8586C45.5517 17.5588 46.2421 17.4712 46.9132 17.298L47.7437 17.0838C48.8212 16.8058 49.7884 16.2061 50.5165 15.3647V15.3647C51.0646 14.7313 51.4601 13.9807 51.6725 13.1705L52 11.9216M39.6423 17.5588L7.86928 20.5036C7.42582 20.5447 6.98583 20.6172 6.55263 20.7206L5.65955 20.9337C5.01511 21.0874 4.40836 21.3697 3.87569 21.7637L3.68657 21.9036C3.01161 22.4028 2.50346 23.0945 2.22886 23.8878V23.8878C2.07735 24.3255 2 24.7855 2 25.2487V25.5826C2 26.2422 2.10619 26.8975 2.31448 27.5233L2.65041 28.5327M52 11.9216V24.6028C52 25.0645 51.9199 25.5228 51.7633 25.9571V25.9571C51.4936 26.705 51.0069 27.3554 50.3653 27.825L50.1762 27.9634C49.6629 28.3391 49.0794 28.6081 48.4603 28.7545L46.8926 29.1253C46.2335 29.2812 45.5631 29.3841 44.8876 29.4332L8.66667 32.0654M8.66667 32.0654L7.49272 31.8203C6.60303 31.6346 5.75605 31.2836 4.9957 30.7857V30.7857C4.46428 30.4377 3.98075 30.0215 3.55749 29.5478L2.65041 28.5327M8.66667 32.0654L51.1052 36.5557C51.6139 36.6095 52 37.0386 52 37.5501V47.19C52 47.6223 51.6245 47.9588 51.1948 47.9117L6.65963 43.0255C5.84258 42.9358 5.06085 42.6436 4.38538 42.1752L4.08729 41.9685C3.67661 41.6838 3.33506 41.3105 3.08782 40.8762V40.8762C2.80115 40.3726 2.65041 39.8032 2.65041 39.2237V28.5327" stroke="#3F888F" stroke-width="3"/>
</svg>
