<svg width="20" height="20" viewBox="0 0 20 20" fill="none" xmlns="http://www.w3.org/2000/svg">
<path d="M9.38545 1.12685C9.65075 0.640392 10.3492 0.640391 10.6145 1.12685L12.9562 5.42049C13.0568 5.6051 13.2352 5.73467 13.4419 5.77337L18.249 6.67357C18.7936 6.77557 19.0094 7.43988 18.6288 7.84252L15.2689 11.3963C15.1244 11.5491 15.0563 11.7588 15.0834 11.9673L15.7127 16.8173C15.784 17.3668 15.2189 17.7774 14.7183 17.5398L10.3002 15.4425C10.1102 15.3523 9.88978 15.3523 9.69982 15.4425L5.28167 17.5398C4.78111 17.7774 4.21601 17.3668 4.28731 16.8173L4.91664 11.9673C4.9437 11.7588 4.87558 11.5491 4.73112 11.3963L1.37123 7.84252C0.99056 7.43988 1.20641 6.77557 1.75104 6.67357L6.55813 5.77337C6.76482 5.73467 6.94315 5.6051 7.04383 5.42049L9.38545 1.12685Z" fill="#ECC600"/>
</svg>
