<svg width="71" height="71" viewBox="0 0 71 71" fill="none" xmlns="http://www.w3.org/2000/svg">
<path d="M71 36C71 55.6061 55.6061 71 36 71C16.3939 71 0 55.6061 0 36C0 16.3939 16.3939 0 36 0C55.6061 0 71 16.3939 71 36Z" fill="#64919A" fill-opacity="0.635417"/>
<path d="M70.5 36C70.5 55.33 55.33 70.5 36 70.5C16.6515 70.5 0.5 55.3118 0.5 36C0.5 16.67 16.67 0.5 36 0.5C55.3118 0.5 70.5 16.6515 70.5 36Z" stroke="white"/>
<path d="M44.8694 23.2637L17.8694 33.2637C16.7641 33.7006 16.6575 33.7887 17.8694 34.2637L24.8694 36.2637L41.8694 27.2637C42.7995 26.678 43.6888 26.6194 42.8694 27.2637L27.8694 39.2637V44.2637C28.2951 45.0307 29.3722 44.6449 29.8694 44.2637L33.8694 41.2637L39.8694 46.2637C41.4796 47.1083 42.5229 45.8117 42.8694 44.2637L47.8694 25.2637C48.3415 23.358 46.9218 22.5336 44.8694 23.2637Z" fill="white"/>
</svg>
