<svg width="71" height="71" viewBox="0 0 71 71" fill="none" xmlns="http://www.w3.org/2000/svg">
<path d="M71 36C71 55.6061 55.6061 71 36 71C16.3939 71 0 55.6061 0 36C0 16.3939 16.3939 0 36 0C55.6061 0 71 16.3939 71 36Z" fill="#64919A" fill-opacity="0.635417"/>
<path d="M70.5 36C70.5 55.33 55.33 70.5 36 70.5C16.6515 70.5 0.5 55.3118 0.5 36C0.5 16.67 16.67 0.5 36 0.5C55.3118 0.5 70.5 16.6515 70.5 36Z" stroke="white"/>
<path fill-rule="evenodd" clip-rule="evenodd" d="M54.9694 23.384C55.2969 22.2692 55.2912 21.1358 54.0275 21.1313L49.9223 21.1167C48.8624 21.1129 48.1276 21.8501 47.8134 22.6088C47.8134 22.6088 45.4645 28.8899 42.2881 33.0861C41.2636 34.2993 40.7097 34.58 40.1793 34.5781C39.8936 34.5771 39.1674 34.1899 39.2092 33.0751L39.5749 23.3293C39.6243 22.0117 39.5308 21.0798 38.633 21.0766L31.4488 21.0511C30.7957 21.0488 30.3891 21.9385 30.3663 22.5468C30.3187 23.8139 32.2204 23.5035 32.2501 27.0522L31.9407 35.2987C31.878 36.9713 31.3925 36.7963 30.8582 36.7944C29.4308 36.7893 25.9805 30.7333 24.1803 23.2746C23.8313 21.7973 24.2991 21.0257 23.2384 21.0219L18.1069 21.0037C16.8833 20.9993 17.0529 21.7387 17.0243 22.4994C16.973 23.8684 18.6829 30.625 23.5615 39.7676C26.7948 46.0116 31.0656 49.5414 35.5115 49.5572C38.2043 49.5667 38.6273 48.5862 38.6748 47.3191L38.8436 42.821C38.9006 41.3006 39.0692 41.3222 39.9261 41.3253C40.5376 41.3274 41.5429 41.3385 43.9189 44.3386C46.6406 47.8968 47.2624 49.5989 48.8535 49.6046L52.9587 49.6191C54.1823 49.6235 55.3671 48.8484 55.0957 47.3774C54.7842 45.9062 52.9153 43.906 51.2155 41.3654C50.2898 39.9434 49.7235 38.3719 49.3035 37.6097C48.7302 36.5936 48.9052 36.271 49.3879 35.3606C49.347 35.3605 54.3257 26.4267 54.9694 23.384Z" fill="white"/>
</svg>
