<svg width="48" height="62" viewBox="0 0 48 62" fill="none" xmlns="http://www.w3.org/2000/svg">
<path d="M22.1855 7.45332C22.7657 6.54778 24.0888 6.54778 24.669 7.45332C25.9159 9.39938 28.4397 10.0756 30.4926 9.01376C31.4479 8.51965 32.5937 9.1812 32.6435 10.2555C32.7503 12.5643 34.5978 14.4119 36.9066 14.5187C37.981 14.5684 38.6425 15.7143 38.1484 16.6695C37.0865 18.7224 37.7628 21.2462 39.7089 22.4932C40.6144 23.0734 40.6144 24.3965 39.7088 24.9767C37.7628 26.2236 37.0865 28.7474 38.1484 30.8003C38.6425 31.7556 37.981 32.9014 36.9066 32.9511C34.5978 33.058 32.7503 34.9055 32.6435 37.2143C32.5937 38.2886 31.4479 38.9502 30.4926 38.4561C28.4397 37.3942 25.9159 38.0705 24.669 40.0165C24.0888 40.9221 22.7657 40.9221 22.1855 40.0165C20.9386 38.0705 18.4147 37.3942 16.3619 38.4561C15.4066 38.9502 14.2608 38.2886 14.211 37.2143C14.1042 34.9055 12.2566 33.058 9.94785 32.9511C8.87352 32.9014 8.21197 31.7556 8.70608 30.8003C9.76796 28.7474 9.0917 26.2236 7.14565 24.9767L6.3364 26.2397L7.14564 24.9767C6.2401 24.3965 6.2401 23.0734 7.14565 22.4932C9.0917 21.2462 9.76795 18.7224 8.70608 16.6695C8.21197 15.7143 8.87352 14.5684 9.94785 14.5187C12.2566 14.4119 14.1042 12.5643 14.211 10.2555C14.2608 9.1812 15.4066 8.51964 16.3619 9.01376C18.4147 10.0756 20.9386 9.39938 22.1855 7.45332Z" stroke="#3F888F" stroke-width="3"/>
<path d="M16.4272 22.4446L22.8558 28.7349L31.4272 15.7349" stroke="#3F888F" stroke-width="3"/>
<path d="M14.4272 36.7349L9.42725 46.9782L17.1641 46.1133L20.1115 51.7349L23.3044 43.0863M24.1641 39.8949L23.3044 43.0863M23.3044 43.0863L27.1115 51.7349L30.0588 46.9782L37.4272 48.5349L32.2694 36.3749" stroke="#3F888F" stroke-width="3"/>
</svg>
