<svg width="62" height="58" viewBox="0 0 62 58" fill="none" xmlns="http://www.w3.org/2000/svg">
<path fill-rule="evenodd" clip-rule="evenodd" d="M7 15.872V8.0591L11 8.50455V13.356C11 13.6321 11.2239 13.856 11.5 13.856C11.7761 13.856 12 13.6321 12 13.356V8.61591L15.3557 8.98961V10.5207C15.3557 10.7969 15.5796 11.0207 15.8557 11.0207C16.1319 11.0207 16.3557 10.7969 16.3557 10.5207V9.10097L20.4625 9.5583V11.0571C20.4625 11.3333 20.6863 11.5571 20.9625 11.5571C21.2386 11.5571 21.4625 11.3333 21.4625 11.0571V9.66966L25.0435 10.0684V15.0418C25.0435 15.3179 25.2673 15.5418 25.5435 15.5418C25.8196 15.5418 26.0435 15.3179 26.0435 15.0418V10.1798L30 10.6204V12.2065C30 12.4827 30.2239 12.7065 30.5 12.7065C30.7761 12.7065 31 12.4827 31 12.2065V10.7318L34.8063 11.1557V11.1566V11.1664V11.1762V11.186V11.1958V11.2055V11.2153V11.225V11.2348V11.2445V11.2542V11.2639V11.2736V11.2833V11.293V11.3027V11.3123V11.322V11.3316V11.3412V11.3508V11.3604V11.37V11.3796V11.3891V11.3987V11.4082V11.4177V11.4272V11.4367V11.4461V11.4556V11.465V11.4744V11.4838V11.4932V11.5026V11.512V11.5213V11.5306V11.5399V11.5492V11.5584V11.5677V11.5769V11.5861V11.5953V11.6045V11.6136V11.6227V11.6318V11.6409V11.65V11.659V11.668V11.677V11.686V11.6949V11.7039V11.7128V11.7217V11.7305V11.7393V11.7481V11.7569V11.7657V11.7744V11.7831V11.7918V11.8005V11.8091V11.8177V11.8263V11.8348V11.8433V11.8518V11.8603V11.8687V11.8772V11.8855V11.8939V11.9022V11.9105V11.9188V11.927V11.9352V11.9434V11.9515V11.9596V11.9677V11.9758V11.9838V11.9917V11.9997V12.0076V12.0155V12.0234V12.0312V12.039V12.0467V12.0544V12.0621V12.0697V12.0774V12.0849V12.0925V12.1V12.1074V12.1149V12.1223V12.1296V12.1369V12.1442V12.1514V12.1586V12.1658V12.1729V12.18V12.1871V12.1941V12.201V12.208V12.2149V12.2217V12.2285V12.2353V12.242V12.2487V12.2553V12.2619V12.2685V12.275V12.2814V12.2879V12.2942V12.3006V12.3069V12.3131V12.3193V12.3255V12.3316V12.3376V12.3437V12.3496V12.3556V12.3614V12.3673V12.3731V12.3788V12.3845V12.3901V12.3957V12.4013V12.4068V12.4122V12.4176V12.423V12.4283V12.4335V12.4387V12.4438V12.4489V12.454V12.459V12.4639V12.4688V12.4736V12.4784V12.4831V12.4878V12.4924V12.497V12.5015V12.506V12.5104V12.5147V12.519V12.5232V12.5274V12.5315V12.5356V12.5396V12.5436V12.5475V12.5513V12.5551V12.5588V12.5625V12.5661V12.5696V12.5731V12.5766V12.5799V12.5833V12.5865V12.5897V12.5928V12.5959V12.5989V12.6018V12.6047V12.6075V12.6103V12.613V12.6156V12.6182V12.6207V12.6231V12.6255V12.6278V12.6301V12.6323V12.6344V12.6364V12.6384V12.6404V12.6422V12.644V12.6457V12.6474V12.649V12.6505V12.6519V12.6533V12.6546V12.6559V12.6571V12.6582V12.6592V12.6602V12.6611V12.6619V12.6627V12.6634V12.664V12.6645V12.665V12.6654V12.6657V12.666V12.6662V12.6663L35.3063 12.6663H34.8063C34.8063 12.9425 35.0302 13.1663 35.3063 13.1663C35.5825 13.1663 35.8063 12.9425 35.8063 12.6663H35.3063L35.8063 12.6663V12.6662V12.666V12.6657V12.6654V12.665V12.6645V12.664V12.6634V12.6627V12.6619V12.6611V12.6602V12.6592V12.6582V12.6571V12.6559V12.6546V12.6533V12.6519V12.6505V12.649V12.6474V12.6457V12.644V12.6422V12.6404V12.6384V12.6364V12.6344V12.6323V12.6301V12.6278V12.6255V12.6231V12.6207V12.6182V12.6156V12.613V12.6103V12.6075V12.6047V12.6018V12.5989V12.5959V12.5928V12.5897V12.5865V12.5833V12.5799V12.5766V12.5731V12.5696V12.5661V12.5625V12.5588V12.5551V12.5513V12.5475V12.5436V12.5396V12.5356V12.5315V12.5274V12.5232V12.519V12.5147V12.5104V12.506V12.5015V12.497V12.4924V12.4878V12.4831V12.4784V12.4736V12.4688V12.4639V12.459V12.454V12.4489V12.4438V12.4387V12.4335V12.4283V12.423V12.4176V12.4122V12.4068V12.4013V12.3957V12.3901V12.3845V12.3788V12.3731V12.3673V12.3614V12.3556V12.3496V12.3437V12.3376V12.3316V12.3255V12.3193V12.3131V12.3069V12.3006V12.2942V12.2879V12.2814V12.275V12.2685V12.2619V12.2553V12.2487V12.242V12.2353V12.2285V12.2217V12.2149V12.208V12.201V12.1941V12.1871V12.18V12.1729V12.1658V12.1586V12.1514V12.1442V12.1369V12.1296V12.1223V12.1149V12.1074V12.1V12.0925V12.0849V12.0774V12.0697V12.0621V12.0544V12.0467V12.039V12.0312V12.0234V12.0155V12.0076V11.9997V11.9917V11.9838V11.9758V11.9677V11.9596V11.9515V11.9434V11.9352V11.927V11.9188V11.9105V11.9022V11.8939V11.8855V11.8772V11.8687V11.8603V11.8518V11.8433V11.8348V11.8263V11.8177V11.8091V11.8005V11.7918V11.7831V11.7744V11.7657V11.7569V11.7481V11.7393V11.7305V11.7217V11.7128V11.7039V11.6949V11.686V11.677V11.668V11.659V11.65V11.6409V11.6318V11.6227V11.6136V11.6045V11.5953V11.5861V11.5769V11.5677V11.5584V11.5492V11.5399V11.5306V11.5213V11.512V11.5026V11.4932V11.4838V11.4744V11.465V11.4556V11.4461V11.4367V11.4272V11.4177V11.4082V11.3987V11.3891V11.3796V11.37V11.3604V11.3508V11.3412V11.3316V11.322V11.3123V11.3027V11.293V11.2833V11.2736V11.267L39.5375 11.6825V16.8809C39.5375 17.157 39.7614 17.3809 40.0375 17.3809C40.3137 17.3809 40.5375 17.157 40.5375 16.8809V11.7939L41.1063 11.8572L41.107 11.8573L44.2688 12.2081V14.0456C44.2688 14.3218 44.4926 14.5456 44.7688 14.5456C45.0449 14.5456 45.2688 14.3218 45.2688 14.0456V12.319L48.3288 12.6585C48.5537 12.6834 48.7775 12.7162 49 12.7567V15.0418C49 15.3179 49.2239 15.5418 49.5 15.5418C49.7761 15.5418 50 15.3179 50 15.0418V12.9929L51.3071 13.3583C51.8584 13.5123 52.3651 13.7954 52.7855 14.184C53.2688 14.6308 53.6207 15.2013 53.8031 15.8337L53.9443 16.3233L53.7216 17.1728C53.5673 17.7611 53.2802 18.3061 52.8822 18.7659C52.3536 19.3769 51.6513 19.8123 50.869 20.0141L50.0385 20.2284C49.4897 20.37 48.9253 20.4416 48.3586 20.4416H43.2274L7.44346 16.3688C7.19082 16.3401 7 16.1263 7 15.872ZM51.6185 22.919C52.4814 22.6963 53.2889 22.3117 54 21.7904V28.9856C54 29.2739 53.95 29.56 53.8522 29.8312C53.6839 30.2981 53.3799 30.7042 52.9794 30.9973L52.7903 31.1357C52.4387 31.3931 52.0391 31.5773 51.6151 31.6776L50.0474 32.0484C49.4661 32.1858 48.8747 32.2767 48.2789 32.32L12.2675 34.9369L11.2993 34.7347C10.5931 34.5873 9.92093 34.3088 9.31747 33.9136C8.8957 33.6374 8.51194 33.3071 8.17602 32.9312L7.47567 32.1474L7.23773 31.4324C7.08027 30.9593 7 30.464 7 29.9654V29.6315C7 29.3353 7.04946 29.0412 7.14635 28.7612C7.32195 28.2539 7.64691 27.8116 8.07852 27.4924L8.26765 27.3525C8.63792 27.0786 9.05969 26.8824 9.50766 26.7755L10.4007 26.5624C10.599 26.5151 10.7989 26.4755 11 26.4437V31.5169C11 31.793 11.2239 32.0169 11.5 32.0169C11.7761 32.0169 12 31.793 12 31.5169V26.3344L15.3557 26.0234V28.0686C15.3557 28.3448 15.5796 28.5686 15.8557 28.5686C16.1319 28.5686 16.3557 28.3448 16.3557 28.0686V25.9307L20.4625 25.5501V27.3023C20.4625 27.5785 20.6863 27.8023 20.9625 27.8023C21.2386 27.8023 21.4625 27.5785 21.4625 27.3023V25.4574L25.0435 25.1255V29.9843C25.0435 30.2605 25.2673 30.4843 25.5435 30.4843C25.8196 30.4843 26.0435 30.2605 26.0435 29.9843V25.0328L30 24.6661V25.8464C30 26.1225 30.2239 26.3464 30.5 26.3464C30.7761 26.3464 31 26.1225 31 25.8464V24.5734L34.8063 24.2206V25.8464C34.8063 26.1225 35.0302 26.3464 35.3063 26.3464C35.5825 26.3464 35.8063 26.1225 35.8063 25.8464V24.128L39.5375 23.7821V28.4517C39.5375 28.7279 39.7614 28.9517 40.0375 28.9517C40.3137 28.9517 40.5375 28.7279 40.5375 28.4517V23.6895L43.2116 23.4416H44.2688V25.0035C44.2688 25.2796 44.4926 25.5035 44.7688 25.5035C45.0449 25.5035 45.2688 25.2796 45.2688 25.0035V23.4416H48.3586C48.5727 23.4416 48.7866 23.4345 49 23.4204V24.3138C49 24.59 49.2239 24.8138 49.5 24.8138C49.7761 24.8138 50 24.59 50 24.3138V23.3021C50.2646 23.2568 50.5275 23.2005 50.7879 23.1333L51.6185 22.919ZM54.763 39.4468L29.0447 36.7256L48.4963 35.3121C49.2515 35.2572 50.001 35.1421 50.7378 34.9678L52.3056 34.597C53.1197 34.4045 53.887 34.0507 54.5621 33.5566L54.7512 33.4182C55.6338 32.7722 56.3034 31.8776 56.6744 30.8487C56.8898 30.2512 57 29.6208 57 28.9856V16.3044V16.0923L56.9412 15.8886L56.6856 15.0023C56.3515 13.8441 55.7071 12.7994 54.822 11.9811C54.0523 11.2695 53.1243 10.7512 52.1146 10.469L50.6864 10.0698C50.0225 9.88422 49.3447 9.75279 48.6595 9.67679L41.4384 8.87566L41.4378 8.87559L6.77669 5.01569C5.29557 4.85075 4 6.01006 4 7.50033V15.872C4 17.6519 5.33576 19.1483 7.1042 19.3496L28.5363 21.7889L11.2308 23.3928C10.7168 23.4405 10.2067 23.5245 9.70453 23.6443L8.81145 23.8574C7.97053 24.058 7.1788 24.4264 6.48373 24.9405L6.29461 25.0804C5.37632 25.7596 4.68496 26.7006 4.31137 27.78C4.10524 28.3755 4 29.0013 4 29.6315V29.9654C4 30.7859 4.1321 31.6012 4.39124 32.3798L4.65041 33.1585V43.6065C4.65041 44.4462 4.86884 45.2714 5.28426 46.0011C5.64253 46.6304 6.13747 47.1713 6.73258 47.584L7.03068 47.7907C7.9114 48.4014 8.93069 48.7824 9.99604 48.8993L54.5312 53.7855C55.8488 53.9301 57 52.8983 57 51.5728V41.9329C57 40.654 56.0348 39.5813 54.763 39.4468ZM7.65041 43.6065V36.4079L7.67394 36.4234C8.59117 37.024 9.61291 37.4474 10.6862 37.6714L11 37.7369V42.7813C11 43.0574 11.2239 43.2813 11.5 43.2813C11.7761 43.2813 12 43.0574 12 42.7813V37.9389L12.0088 37.9398L15.3557 38.2939V40.1759C15.3557 40.452 15.5796 40.6759 15.8557 40.6759C16.1319 40.6759 16.3557 40.452 16.3557 40.1759V38.3997L20.4625 38.8343V40.7889C20.4625 41.0651 20.6863 41.2889 20.9625 41.2889C21.2386 41.2889 21.4625 41.0651 21.4625 40.7889V38.9401L25.0435 39.319V44.697C25.0435 44.9731 25.2673 45.197 25.5435 45.197C25.8196 45.197 26.0435 44.9731 26.0435 44.697V39.4248L30 39.8434V42.0916C30 42.3677 30.2239 42.5916 30.5 42.5916C30.7761 42.5916 31 42.3677 31 42.0916V39.9492L34.8063 40.352V42.7813C34.8063 43.0574 35.0302 43.2813 35.3063 43.2813C35.5825 43.2813 35.8063 43.0574 35.8063 42.7813V40.4578L39.3874 40.8367V46.3828C39.3874 46.6589 39.6112 46.8828 39.8874 46.8828C40.1635 46.8828 40.3874 46.6589 40.3874 46.3828V40.9425L44.2688 41.3531V43.9307C44.2688 44.2068 44.4926 44.4307 44.7688 44.4307C45.0449 44.4307 45.2688 44.2068 45.2688 43.9307V41.459L49 41.8537V44.5437C49 44.8198 49.2239 45.0437 49.5 45.0437C49.7761 45.0437 50 44.8198 50 44.5437V41.9595L54 42.3828V50.7092L10.3232 45.9172C9.75446 45.8548 9.21029 45.6514 8.74009 45.3253L8.442 45.1187C8.21575 44.9618 8.02759 44.7561 7.89138 44.5169C7.73345 44.2395 7.65041 43.9257 7.65041 43.6065Z" fill="#3F888F"/>
</svg>
