<svg width="71" height="71" viewBox="0 0 71 71" fill="none" xmlns="http://www.w3.org/2000/svg">
<path d="M71 36C71 55.6061 55.6061 71 36 71C16.3939 71 0 55.6061 0 36C0 16.3939 16.3939 0 36 0C55.6061 0 71 16.3939 71 36Z" fill="#64919A" fill-opacity="0.635417"/>
<path d="M70.5 36C70.5 55.33 55.33 70.5 36 70.5C16.6515 70.5 0.5 55.3118 0.5 36C0.5 16.67 16.67 0.5 36 0.5C55.3118 0.5 70.5 16.6515 70.5 36Z" stroke="white"/>
<path d="M53.1639 27.5227C52.2149 25.2677 50.8543 23.2437 49.1201 21.5052C47.3858 19.7709 45.3618 18.4062 43.1026 17.4613C40.793 16.4913 38.3407 16 35.8127 16H35.7288C33.184 16.0126 30.7191 16.5165 28.4011 17.5075C26.1629 18.4649 24.1557 19.8255 22.4382 21.5598C20.7207 23.294 19.3728 25.3097 18.4406 27.5563C17.4747 29.8826 16.9876 32.356 17.0002 34.9007C17.0128 37.8149 17.7099 40.7082 19.0159 43.2949V49.6777C17.0002 52.1847 17.9493 52.1847 19.0159 52.1847L27.3345 51.6094C29.9212 52.9153 32.8145 53.6124 35.7288 53.625H35.8169C38.3323 53.625 40.772 53.1379 43.069 52.1847C45.3156 51.2482 47.3354 49.9045 49.0655 48.187C50.7997 46.4695 52.1645 44.4623 53.1177 42.2241C54.1087 39.9062 54.6126 37.4412 54.6252 34.8965C54.6378 32.3392 54.1423 29.8574 53.1639 27.5227ZM46.8189 45.9152C43.8752 48.8295 39.97 50.4336 35.8127 50.4336H35.7414C33.2092 50.421 30.6939 49.7911 28.4725 48.6069L28.1198 48.418H22.2073V42.5055L22.0183 42.1527C20.8341 39.9313 20.2042 37.416 20.1916 34.8839C20.1748 30.6973 21.7747 26.7668 24.71 23.8063C27.6411 20.8459 31.5589 19.2082 35.7456 19.1914H35.8169C37.9165 19.1914 39.9532 19.5987 41.8722 20.405C43.7451 21.1902 45.4247 22.3198 46.8693 23.7644C48.3096 25.2047 49.4434 26.8886 50.2287 28.7614C51.0433 30.7015 51.4506 32.7591 51.4422 34.8839C51.417 39.0663 49.7751 42.9842 46.8189 45.9152Z" fill="white"/>
<path d="M44.2741 38.5036C43.8164 38.2685 41.5362 37.1515 41.1121 37.0003C40.688 36.8407 40.3772 36.7651 40.0707 37.2354C39.76 37.7016 38.8781 38.7388 38.601 39.0537C38.3322 39.3645 38.0593 39.4022 37.6016 39.1713C34.8805 37.8107 33.0958 36.7441 31.3027 33.6661C30.8282 32.8473 31.7772 32.9061 32.6633 31.1382C32.8145 30.8274 32.7389 30.5629 32.6213 30.3277C32.5037 30.0926 31.5799 27.8166 31.1936 26.8886C30.8198 25.9857 30.4335 26.1117 30.1521 26.0949C29.8834 26.0781 29.5769 26.0781 29.2661 26.0781C28.9554 26.0781 28.4557 26.1957 28.0315 26.6534C27.6074 27.1195 26.4106 28.2407 26.4106 30.5167C26.4106 32.7927 28.0693 34.9973 28.2961 35.308C28.5312 35.6187 31.5589 40.2883 36.2074 42.2997C39.1469 43.5679 40.2975 43.6771 41.7672 43.4587C42.6616 43.3243 44.5051 42.3417 44.8872 41.2541C45.2693 40.1707 45.2693 39.2427 45.156 39.0495C45.0426 38.8438 44.7318 38.7262 44.2741 38.5036Z" fill="white"/>
</svg>
